<svg version="1.0" xmlns="http://www.w3.org/2000/svg" width="253.000000pt" height="237.000000pt" viewBox="0 0 253.000000 237.000000">
<g transform="translate(0.000000,237.000000) scale(0.100000,-0.100000)"
fill="#fff" stroke="none">
<path d="M35 2336 c-32 -32 -40 -69 -24 -108 11 -27 32 -41 146 -95 92 -44
137 -71 143 -86 5 -12 25 -94 44 -182 101 -460 227 -987 244 -1021 26 -51 66
-88 122 -113 44 -20 62 -21 730 -21 668 0 686 1 730 21 55 25 96 62 120 110
28 54 224 900 228 984 3 61 -1 77 -25 125 -31 61 -92 113 -151 130 -24 6 -308
10 -810 10 l-774 0 -29 -29 c-20 -20 -29 -40 -29 -61 0 -42 26 -89 53 -95 12
-3 362 -6 778 -8 728 -2 758 -3 778 -21 12 -11 21 -26 21 -36 0 -9 -47 -216
-105 -460 -86 -366 -108 -448 -126 -462 -20 -17 -66 -18 -659 -18 -731 0 -677
-7 -698 92 -19 91 -239 1061 -251 1103 -23 86 -61 121 -216 196 -160 77 -200
85 -240 45z"/>
<path d="M937 496 c-230 -61 -255 -378 -38 -472 45 -20 134 -22 185 -5 49 17
111 73 139 125 30 57 30 165 0 222 -56 105 -175 159 -286 130z m122 -172 c26
-21 31 -33 31 -69 0 -104 -140 -132 -180 -36 -38 94 71 171 149 105z"/>
<path d="M1820 496 c-86 -23 -149 -79 -179 -159 -21 -55 -13 -140 17 -198 99
-192 386 -171 458 33 31 88 12 176 -53 248 -63 71 -157 100 -243 76z m103
-157 c26 -12 57 -57 57 -84 0 -28 -28 -71 -55 -83 -96 -44 -176 49 -120 139
23 36 74 48 118 28z"/>
</g>
</svg>
