<?xml version="1.0" standalone="no"?>
<!DOCTYPE svg PUBLIC "-//W3C//DTD SVG 20010904//EN"
 "http://www.w3.org/TR/2001/REC-SVG-20010904/DTD/svg10.dtd">
<svg version="1.0" xmlns="http://www.w3.org/2000/svg"
 width="405.000000pt" height="405.000000pt" viewBox="0 0 405.000000 405.000000"
 preserveAspectRatio="xMidYMid meet">
<metadata>
Created by potrace 1.14, written by Peter Selinger 2001-2017
</metadata>
<g transform="translate(0.000000,405.000000) scale(0.100000,-0.100000)"
fill="#000000" stroke="none">
<path d="M1027 3356 c-108 -38 -185 -96 -253 -188 -129 -175 -133 -412 -11
-598 17 -25 140 -156 276 -292 l245 -248 -265 -267 c-286 -289 -313 -325 -344
-454 -81 -345 191 -670 540 -646 96 7 180 35 255 83 30 20 165 148 299 285
134 137 249 249 255 249 6 0 128 -118 271 -263 226 -229 268 -268 325 -295
126 -61 243 -76 368 -47 281 66 459 360 387 638 -38 147 -4 109 -958 1066
-566 567 -903 897 -941 922 -86 56 -167 79 -285 79 -75 0 -111 -6 -164 -24z
m228 -345 c27 -12 149 -128 365 -347 344 -347 367 -376 404 -503 20 -70 20
-192 0 -262 -37 -127 -60 -156 -407 -506 -181 -183 -344 -339 -362 -347 -59
-28 -136 -17 -182 26 -12 12 -30 41 -39 65 -33 86 -30 90 331 453 177 179 330
339 339 357 26 52 21 131 -12 184 -16 24 -162 174 -325 332 -298 290 -337 336
-337 400 0 64 55 139 115 156 46 14 66 12 110 -8z m1547 -1538 c178 -179 208
-214 218 -252 10 -36 9 -51 -4 -86 -39 -101 -144 -135 -237 -77 -38 25 -349
342 -349 357 0 3 25 67 55 142 30 76 55 143 55 151 0 24 47 -18 262 -235z"/>
</g>
</svg>
