<?xml version="1.0" standalone="no"?>
<!DOCTYPE svg PUBLIC "-//W3C//DTD SVG 20010904//EN"
 "http://www.w3.org/TR/2001/REC-SVG-20010904/DTD/svg10.dtd">
<svg version="1.0" xmlns="http://www.w3.org/2000/svg"
 width="405.000000pt" height="405.000000pt" viewBox="0 0 405.000000 405.000000"
 preserveAspectRatio="xMidYMid meet">
<metadata>
Created by potrace 1.14, written by Peter Selinger 2001-2017
</metadata>
<g transform="translate(0.000000,405.000000) scale(0.100000,-0.100000)"
fill="#000000" stroke="none">
<path d="M650 4029 c-273 -71 -511 -290 -601 -552 -15 -45 -33 -111 -38 -147
-15 -90 -15 -2520 0 -2610 5 -36 23 -102 38 -147 91 -264 330 -483 605 -553
77 -20 110 -20 1371 -20 1261 0 1294 0 1371 20 275 70 514 289 605 553 15 45
33 111 38 147 15 90 15 2520 0 2610 -5 36 -23 102 -38 147 -91 264 -330 483
-605 553 -77 20 -109 20 -1375 19 -1252 0 -1299 -1 -1371 -20z m733 -737 c33
-12 80 -35 106 -51 45 -29 1579 -1569 1676 -1682 215 -252 112 -604 -222 -762
-62 -29 -76 -32 -163 -31 -106 1 -182 24 -255 75 -22 16 -148 134 -280 263
l-240 234 -251 -249 c-231 -228 -257 -251 -327 -285 -146 -69 -287 -69 -433 0
-189 90 -302 309 -266 518 25 146 40 167 319 449 139 140 253 260 253 264 0 5
-110 120 -244 255 -220 222 -247 252 -280 320 -135 279 10 603 308 692 80 24
217 19 299 -10z"/>
</g>
</svg>
