<?xml version="1.0" standalone="no"?>
<!DOCTYPE svg PUBLIC "-//W3C//DTD SVG 20010904//EN"
 "http://www.w3.org/TR/2001/REC-SVG-20010904/DTD/svg10.dtd">
<svg version="1.0" xmlns="http://www.w3.org/2000/svg"
 width="400.000000pt" height="400.000000pt" viewBox="0 0 400.000000 400.000000"
 preserveAspectRatio="xMidYMid meet">
<metadata>
Created by potrace 1.14, written by Peter Selinger 2001-2017
</metadata>
<g transform="translate(0.000000,400.000000) scale(0.100000,-0.100000)"
fill="#000000" stroke="none">
<path d="M1465 3488 c-39 -67 -82 -142 -97 -167 -15 -25 -39 -68 -54 -96 -15
-27 -42 -74 -60 -103 -19 -29 -34 -54 -34 -57 0 -2 -32 -59 -71 -127 -40 -67
-80 -136 -89 -153 -94 -165 -191 -335 -233 -405 -27 -47 -58 -98 -67 -115 -31
-55 -91 -160 -115 -200 -13 -22 -24 -45 -25 -52 0 -9 112 -12 456 -11 250 0
457 -1 459 -3 2 -2 61 -105 133 -229 71 -124 172 -300 225 -392 54 -92 97
-171 97 -175 0 -4 -205 -8 -455 -8 -250 0 -455 -3 -455 -7 0 -4 34 -67 76
-140 42 -73 86 -149 97 -168 10 -19 41 -72 68 -118 27 -45 49 -84 49 -86 0 -2
18 -34 41 -71 22 -37 50 -84 61 -104 11 -20 29 -53 41 -73 l21 -38 465 0 466
0 150 262 c83 143 162 282 176 307 15 25 59 102 98 169 39 68 71 126 71 129 0
2 14 24 30 48 17 24 30 45 30 48 0 3 39 72 253 442 63 110 113 202 112 203 -2
2 -210 4 -463 4 l-459 0 -33 56 c-18 32 -83 145 -145 252 -61 107 -144 250
-183 318 -40 67 -78 135 -86 150 l-14 27 459 0 c252 -1 459 2 459 7 0 4 -55
103 -123 220 -68 117 -170 295 -228 395 l-104 183 -465 0 -466 0 -69 -122z
m275 -84 c0 -8 -19 -13 -24 -6 -3 5 1 9 9 9 8 0 15 -2 15 -3z m-9 -41 c13 -16
12 -17 -3 -4 -10 7 -18 15 -18 17 0 8 8 3 21 -13z m-11 -33 c6 -11 7 -20 2
-20 -6 0 -12 9 -15 20 -3 11 -3 20 -1 20 2 0 8 -9 14 -20z m35 -48 c-3 -3 -11
0 -18 7 -9 10 -8 11 6 5 10 -3 15 -9 12 -12z m126 -295 c-10 -9 -11 -8 -5 6 3
10 9 15 12 12 3 -3 0 -11 -7 -18z m45 -29 c3 -4 -1 -5 -10 -4 -8 1 -18 5 -22
8 -3 4 1 5 10 4 8 -1 18 -5 22 -8z m-22 -48 c-6 -6 -10 -3 -10 10 0 13 4 16
10 10 7 -7 7 -13 0 -20z m26 -54 c-7 -7 -13 -7 -20 0 -6 6 -3 10 10 10 13 0
16 -4 10 -10z m56 -21 c-1 -8 -5 -17 -8 -21 -5 -4 -4 16 1 34 3 9 9 -1 7 -13z
m-135 -12 c13 -16 12 -17 -3 -4 -10 7 -18 15 -18 17 0 8 8 3 21 -13z m94 8 c3
-5 2 -12 -3 -15 -5 -3 -9 1 -9 9 0 17 3 19 12 6z m-861 -239 c2 -4 -4 -8 -14
-8 -10 0 -16 4 -14 8 3 4 9 8 14 8 5 0 11 -4 14 -8z m43 -8 c-3 -3 -12 -4 -19
-1 -8 3 -5 6 6 6 11 1 17 -2 13 -5z m19 -10 c-5 -12 -1 -14 17 -9 19 5 20 4 4
-5 -21 -13 -38 -5 -30 15 3 8 7 15 10 15 3 0 2 -7 -1 -16z m-39 -21 c0 -9 -4
-10 -12 -3 -7 5 -14 7 -17 4 -3 -3 -8 -1 -11 3 -3 5 5 9 17 9 12 0 23 -6 23
-13z m83 -13 c0 -5 6 -10 14 -10 17 0 29 -27 15 -36 -6 -3 -13 -3 -16 0 -4 3
-1 6 6 6 7 0 9 5 6 10 -4 6 -10 8 -14 6 -4 -3 -12 4 -19 15 -7 11 -8 19 -2 19
5 0 10 -4 10 -10z m-3 -44 c4 -4 1 -6 -7 -4 -9 2 -14 -3 -12 -12 2 -8 0 -11
-4 -7 -4 4 -9 14 -10 21 -2 14 20 16 33 2z m61 -3 c-1 -5 3 -19 10 -33 12 -22
11 -23 -1 -8 -8 10 -17 15 -20 12 -4 -5 -3 17 2 34 2 6 11 1 9 -5z m-38 -47
c0 -3 -4 -8 -10 -11 -5 -3 -10 -1 -10 4 0 6 5 11 10 11 6 0 10 -2 10 -4z m65
-84 c-17 -15 -18 -15 -6 0 7 9 9 23 5 30 -6 10 -4 11 7 0 11 -10 10 -15 -6
-30z m55 -26 c0 -2 -8 -10 -17 -17 -16 -13 -17 -12 -4 4 13 16 21 21 21 13z"/>
</g>
</svg>
